# xmcd CD database file
#
# Track frame offsets:
#	150
#	14687
#	29875
#	42625
#	55700
#	72300
#	84787
#	101737
#
# Disc length: 1579 seconds
#
# Revision: 0
# Processed by: cddbd v1.5.2PL0 Copyright (c) Steve Scherf et al.
# Submitted via: CDex 1.70beta2
#
DISCID=6c062908
DTITLE=James Clark - You're In My Heart for Good
DYEAR=1900
DGENRE=Country
TTITLE0=Dancin'
TTITLE1=You're in My Heart for Good
TTITLE2=Honky Tonk Swing
TTITLE3=Kickin' Back
TTITLE4=The Family
TTITLE5=If It Wasn;t For Love
TTITLE6=I'll Cry Tomorrow
TTITLE7=Fastest Thing On Wheels
EXTD=
EXTT0=
EXTT1=
EXTT2=
EXTT3=
EXTT4=
EXTT5=
EXTT6=
EXTT7=
PLAYORDER=
